<svg width="394" height="219" viewBox="0 0 394 219" fill="none" xmlns="http://www.w3.org/2000/svg">
<path d="M237.287 14.7886L367.15 84.8908C386.036 95.0861 386.606 120.776 368.169 130.787L237.842 201.544C219.404 211.554 196.047 198.235 196.114 177.749L196.579 36.8897C196.645 16.9735 218.926 4.87678 237.287 14.7886Z" stroke="url(#paint0_linear_1575_1401)" stroke-width="12"/>
<path d="M28.34 129.9C25.16 129.9 22.31 129.3 19.79 128.1C17.33 126.84 15.38 125.16 13.94 123.06C12.56 120.96 11.87 118.59 11.87 115.95C11.87 112.71 12.71 110.16 14.39 108.3C16.07 106.38 18.8 105 22.58 104.16C26.36 103.32 31.43 102.9 37.79 102.9H42.29V109.38H37.88C34.16 109.38 31.19 109.56 28.97 109.92C26.75 110.28 25.16 110.91 24.2 111.81C23.3 112.65 22.85 113.85 22.85 115.41C22.85 117.39 23.54 119.01 24.92 120.27C26.3 121.53 28.22 122.16 30.68 122.16C32.66 122.16 34.4 121.71 35.9 120.81C37.46 119.85 38.69 118.56 39.59 116.94C40.49 115.32 40.94 113.46 40.94 111.36V101.01C40.94 98.01 40.28 95.85 38.96 94.53C37.64 93.21 35.42 92.55 32.3 92.55C30.56 92.55 28.67 92.76 26.63 93.18C24.65 93.6 22.55 94.32 20.33 95.34C19.19 95.88 18.17 96.03 17.27 95.79C16.43 95.55 15.77 95.07 15.29 94.35C14.81 93.57 14.57 92.73 14.57 91.83C14.57 90.93 14.81 90.06 15.29 89.22C15.77 88.32 16.58 87.66 17.72 87.24C20.48 86.1 23.12 85.29 25.64 84.81C28.22 84.33 30.56 84.09 32.66 84.09C36.98 84.09 40.52 84.75 43.28 86.07C46.1 87.39 48.2 89.4 49.58 92.1C50.96 94.74 51.65 98.16 51.65 102.36V123.96C51.65 125.82 51.2 127.26 50.3 128.28C49.4 129.24 48.11 129.72 46.43 129.72C44.75 129.72 43.43 129.24 42.47 128.28C41.57 127.26 41.12 125.82 41.12 123.96V119.64H41.84C41.42 121.74 40.58 123.57 39.32 125.13C38.12 126.63 36.59 127.8 34.73 128.64C32.87 129.48 30.74 129.9 28.34 129.9ZM68.6488 129.63C66.8488 129.63 65.4688 129.09 64.5088 128.01C63.5488 126.93 63.0688 125.43 63.0688 123.51V90.48C63.0688 88.5 63.5488 87 64.5088 85.98C65.4688 84.9 66.8488 84.36 68.6488 84.36C70.4488 84.36 71.8288 84.9 72.7888 85.98C73.8088 87 74.3188 88.5 74.3188 90.48V123.51C74.3188 125.43 73.8388 126.93 72.8788 128.01C71.9188 129.09 70.5088 129.63 68.6488 129.63ZM68.6488 75.99C66.5488 75.99 64.8988 75.48 63.6988 74.46C62.5588 73.38 61.9888 71.91 61.9888 70.05C61.9888 68.13 62.5588 66.66 63.6988 65.64C64.8988 64.62 66.5488 64.11 68.6488 64.11C70.8088 64.11 72.4588 64.62 73.5988 65.64C74.7388 66.66 75.3088 68.13 75.3088 70.05C75.3088 71.91 74.7388 73.38 73.5988 74.46C72.4588 75.48 70.8088 75.99 68.6488 75.99ZM116.022 145.92C114.222 145.92 112.842 145.44 111.882 144.48C110.922 143.52 110.442 142.11 110.442 140.25V89.94C110.442 88.08 110.922 86.67 111.882 85.71C112.842 84.75 114.192 84.27 115.932 84.27C117.732 84.27 119.112 84.75 120.072 85.71C121.032 86.67 121.512 88.08 121.512 89.94V96.96L120.522 94.26C121.422 91.2 123.252 88.74 126.012 86.88C128.832 85.02 132.102 84.09 135.822 84.09C139.662 84.09 143.022 85.02 145.902 86.88C148.842 88.74 151.122 91.38 152.742 94.8C154.362 98.16 155.172 102.21 155.172 106.95C155.172 111.63 154.362 115.71 152.742 119.19C151.122 122.61 148.872 125.25 145.992 127.11C143.112 128.97 139.722 129.9 135.822 129.9C132.162 129.9 128.952 129 126.192 127.2C123.432 125.34 121.572 122.94 120.612 120H121.692V140.25C121.692 142.11 121.182 143.52 120.162 144.48C119.202 145.44 117.822 145.92 116.022 145.92ZM132.672 121.35C134.892 121.35 136.842 120.81 138.522 119.73C140.202 118.65 141.492 117.06 142.392 114.96C143.352 112.8 143.832 110.13 143.832 106.95C143.832 102.15 142.812 98.58 140.772 96.24C138.732 93.84 136.032 92.64 132.672 92.64C130.452 92.64 128.502 93.18 126.822 94.26C125.142 95.28 123.822 96.87 122.862 99.03C121.962 101.13 121.512 103.77 121.512 106.95C121.512 111.69 122.532 115.29 124.572 117.75C126.612 120.15 129.312 121.35 132.672 121.35ZM169.987 129.63C168.187 129.63 166.807 129.09 165.847 128.01C164.887 126.93 164.407 125.43 164.407 123.51V90.48C164.407 88.5 164.887 87 165.847 85.98C166.807 84.9 168.187 84.36 169.987 84.36C171.787 84.36 173.167 84.9 174.127 85.98C175.147 87 175.657 88.5 175.657 90.48V123.51C175.657 125.43 175.177 126.93 174.217 128.01C173.257 129.09 171.847 129.63 169.987 129.63ZM169.987 75.99C167.887 75.99 166.237 75.48 165.037 74.46C163.897 73.38 163.327 71.91 163.327 70.05C163.327 68.13 163.897 66.66 165.037 65.64C166.237 64.62 167.887 64.11 169.987 64.11C172.147 64.11 173.797 64.62 174.937 65.64C176.077 66.66 176.647 68.13 176.647 70.05C176.647 71.91 176.077 73.38 174.937 74.46C173.797 75.48 172.147 75.99 169.987 75.99ZM207.506 129.9C203.606 129.9 200.336 129.24 197.696 127.92C195.116 126.6 193.196 124.68 191.936 122.16C190.676 119.58 190.046 116.4 190.046 112.62V93.45H185.366C183.926 93.45 182.816 93.09 182.036 92.37C181.256 91.59 180.866 90.54 180.866 89.22C180.866 87.84 181.256 86.79 182.036 86.07C182.816 85.35 183.926 84.99 185.366 84.99H190.046V76.8C190.046 74.94 190.526 73.53 191.486 72.57C192.506 71.61 193.916 71.13 195.716 71.13C197.516 71.13 198.896 71.61 199.856 72.57C200.816 73.53 201.296 74.94 201.296 76.8V84.99H210.836C212.276 84.99 213.386 85.35 214.166 86.07C214.946 86.79 215.336 87.84 215.336 89.22C215.336 90.54 214.946 91.59 214.166 92.37C213.386 93.09 212.276 93.45 210.836 93.45H201.296V111.99C201.296 114.87 201.926 117.03 203.186 118.47C204.446 119.91 206.486 120.63 209.306 120.63C210.326 120.63 211.226 120.54 212.006 120.36C212.786 120.18 213.476 120.06 214.076 120C214.796 119.94 215.396 120.18 215.876 120.72C216.356 121.2 216.596 122.22 216.596 123.78C216.596 124.98 216.386 126.06 215.966 127.02C215.606 127.92 214.916 128.55 213.896 128.91C213.116 129.15 212.096 129.36 210.836 129.54C209.576 129.78 208.466 129.9 207.506 129.9ZM241.788 129.9C237.168 129.9 233.148 128.97 229.728 127.11C226.308 125.19 223.668 122.49 221.808 119.01C219.948 115.53 219.018 111.45 219.018 106.77C219.018 103.23 219.528 100.08 220.548 97.32C221.628 94.5 223.158 92.13 225.138 90.21C227.118 88.23 229.518 86.73 232.338 85.71C235.158 84.63 238.308 84.09 241.788 84.09C243.768 84.09 245.898 84.36 248.178 84.9C250.518 85.44 252.708 86.34 254.748 87.6C255.708 88.2 256.338 88.92 256.638 89.76C256.938 90.6 256.998 91.47 256.818 92.37C256.638 93.21 256.248 93.96 255.648 94.62C255.108 95.22 254.418 95.61 253.578 95.79C252.738 95.91 251.808 95.7 250.788 95.16C249.468 94.38 248.118 93.81 246.738 93.45C245.358 93.03 244.038 92.82 242.778 92.82C240.798 92.82 239.058 93.15 237.558 93.81C236.058 94.41 234.768 95.31 233.688 96.51C232.668 97.65 231.888 99.09 231.348 100.83C230.808 102.57 230.538 104.58 230.538 106.86C230.538 111.3 231.588 114.81 233.688 117.39C235.848 119.91 238.878 121.17 242.778 121.17C244.038 121.17 245.328 120.99 246.648 120.63C248.028 120.27 249.408 119.7 250.788 118.92C251.808 118.38 252.708 118.2 253.488 118.38C254.328 118.56 255.018 118.98 255.558 119.64C256.098 120.24 256.428 120.99 256.548 121.89C256.668 122.73 256.548 123.57 256.188 124.41C255.888 125.25 255.288 125.94 254.388 126.48C252.408 127.68 250.308 128.55 248.088 129.09C245.868 129.63 243.768 129.9 241.788 129.9ZM269.479 129.72C267.679 129.72 266.299 129.24 265.339 128.28C264.379 127.26 263.899 125.82 263.899 123.96V70.5C263.899 68.64 264.379 67.23 265.339 66.27C266.299 65.31 267.679 64.83 269.479 64.83C271.279 64.83 272.659 65.31 273.619 66.27C274.639 67.23 275.149 68.64 275.149 70.5V93.81H273.889C275.209 90.63 277.249 88.23 280.009 86.61C282.829 84.93 286.009 84.09 289.549 84.09C293.089 84.09 295.999 84.75 298.279 86.07C300.559 87.39 302.269 89.4 303.409 92.1C304.549 94.74 305.119 98.1 305.119 102.18V123.96C305.119 125.82 304.639 127.26 303.679 128.28C302.719 129.24 301.339 129.72 299.539 129.72C297.739 129.72 296.329 129.24 295.309 128.28C294.349 127.26 293.869 125.82 293.869 123.96V102.72C293.869 99.3 293.209 96.81 291.889 95.25C290.629 93.69 288.649 92.91 285.949 92.91C282.649 92.91 280.009 93.96 278.029 96.06C276.109 98.1 275.149 100.83 275.149 104.25V123.96C275.149 127.8 273.259 129.72 269.479 129.72Z" fill="black"/>
<defs>
<linearGradient id="paint0_linear_1575_1401" x1="155.785" y1="82.5452" x2="334.866" y2="244.854" gradientUnits="userSpaceOnUse">
<stop stop-color="#FF0844"/>
<stop offset="0.828125" stop-color="#FFB199" stop-opacity="0.958333"/>
<stop offset="1" stop-opacity="0"/>
</linearGradient>
</defs>
</svg>
